<svg width="45" height="45" viewBox="0 0 45 45" fill="none" xmlns="http://www.w3.org/2000/svg">
<circle cx="22.5" cy="22.5" r="22.5" fill="#F5F6FA"/>
<path fill-rule="evenodd" clip-rule="evenodd" d="M17.7982 32.3958H26.4939C29.6879 32.3958 32.1383 31.2421 31.4424 26.5988L30.6319 20.3058C30.2028 17.9889 28.725 17.1021 27.4282 17.1021H16.8257C15.5099 17.1021 14.1178 18.0556 13.622 20.3058L12.8115 26.5988C12.2204 30.7177 14.6041 32.3958 17.7982 32.3958Z" stroke="#1D1E20" stroke-width="1.5" stroke-linecap="round" stroke-linejoin="round"/>
<path d="M17.6553 16.8733C17.6553 14.3878 19.6702 12.3729 22.1556 12.3729C23.3525 12.3679 24.5021 12.8398 25.3502 13.6843C26.1983 14.5288 26.6751 15.6764 26.6751 16.8733" stroke="#1D1E20" stroke-width="1.5" stroke-linecap="round" stroke-linejoin="round"/>
<path d="M19.0664 21.5644H19.1141" stroke="#1D1E20" stroke-width="1.5" stroke-linecap="round" stroke-linejoin="round"/>
<path d="M25.1399 21.5644H25.1876" stroke="#1D1E20" stroke-width="1.5" stroke-linecap="round" stroke-linejoin="round"/>
</svg>
