<svg width="31" height="9" viewBox="0 0 31 9" fill="none" xmlns="http://www.w3.org/2000/svg">
<path d="M0.878906 8V-2.38419e-07H2.08594V3.47656H6.07422V-2.38419e-07H7.28516V8H6.07422V4.51172H2.08594V8H0.878906ZM11.4766 8.12109C10.9141 8.12109 10.4232 7.99219 10.0039 7.73437C9.58464 7.47656 9.25911 7.11589 9.02734 6.65234C8.79557 6.1888 8.67969 5.64714 8.67969 5.02734C8.67969 4.40495 8.79557 3.86068 9.02734 3.39453C9.25911 2.92839 9.58464 2.56641 10.0039 2.30859C10.4232 2.05078 10.9141 1.92188 11.4766 1.92188C12.0391 1.92188 12.5299 2.05078 12.9492 2.30859C13.3685 2.56641 13.694 2.92839 13.9258 3.39453C14.1576 3.86068 14.2734 4.40495 14.2734 5.02734C14.2734 5.64714 14.1576 6.1888 13.9258 6.65234C13.694 7.11589 13.3685 7.47656 12.9492 7.73437C12.5299 7.99219 12.0391 8.12109 11.4766 8.12109ZM11.4805 7.14062C11.8451 7.14062 12.1471 7.04427 12.3867 6.85156C12.6263 6.65885 12.8034 6.40234 12.918 6.08203C13.0352 5.76172 13.0938 5.40885 13.0938 5.02344C13.0938 4.64062 13.0352 4.28906 12.918 3.96875C12.8034 3.64583 12.6263 3.38672 12.3867 3.19141C12.1471 2.99609 11.8451 2.89844 11.4805 2.89844C11.1133 2.89844 10.8086 2.99609 10.5664 3.19141C10.3268 3.38672 10.1484 3.64583 10.0313 3.96875C9.91667 4.28906 9.85938 4.64062 9.85938 5.02344C9.85938 5.40885 9.91667 5.76172 10.0313 6.08203C10.1484 6.40234 10.3268 6.65885 10.5664 6.85156C10.8086 7.04427 11.1133 7.14062 11.4805 7.14062ZM15.5771 8V2H16.6982V2.97656H16.7725C16.8975 2.64583 17.1019 2.38802 17.3857 2.20313C17.6696 2.01563 18.0094 1.92188 18.4053 1.92188C18.8063 1.92188 19.1423 2.01563 19.4131 2.20313C19.6865 2.39062 19.8883 2.64844 20.0186 2.97656H20.0811C20.2243 2.65625 20.4521 2.40104 20.7646 2.21094C21.0771 2.01823 21.4495 1.92188 21.8818 1.92188C22.4261 1.92188 22.8701 2.09245 23.2139 2.43359C23.5602 2.77474 23.7334 3.28906 23.7334 3.97656V8H22.5654V4.08594C22.5654 3.67969 22.4548 3.38542 22.2334 3.20312C22.012 3.02083 21.7477 2.92969 21.4404 2.92969C21.0602 2.92969 20.7646 3.04687 20.5537 3.28125C20.3428 3.51302 20.2373 3.8112 20.2373 4.17578V8H19.0732V4.01172C19.0732 3.6862 18.9717 3.42448 18.7686 3.22656C18.5654 3.02865 18.3011 2.92969 17.9756 2.92969C17.7542 2.92969 17.5498 2.98828 17.3623 3.10547C17.1774 3.22005 17.0277 3.38021 16.9131 3.58594C16.8011 3.79167 16.7451 4.02995 16.7451 4.30078V8H15.5771ZM27.8848 8.12109C27.2936 8.12109 26.7845 7.99479 26.3574 7.74219C25.9329 7.48698 25.6048 7.12891 25.373 6.66797C25.1439 6.20443 25.0293 5.66146 25.0293 5.03906C25.0293 4.42448 25.1439 3.88281 25.373 3.41406C25.6048 2.94531 25.9277 2.57943 26.3418 2.31641C26.7585 2.05339 27.2454 1.92188 27.8027 1.92188C28.1413 1.92188 28.4694 1.97786 28.7871 2.08984C29.1048 2.20182 29.39 2.3776 29.6426 2.61719C29.8952 2.85677 30.0944 3.16797 30.2402 3.55078C30.3861 3.93099 30.459 4.39323 30.459 4.9375V5.35156H25.6895V4.47656H29.3145C29.3145 4.16927 29.252 3.89714 29.127 3.66016C29.002 3.42057 28.8262 3.23177 28.5996 3.09375C28.3757 2.95573 28.1126 2.88672 27.8105 2.88672C27.4824 2.88672 27.196 2.96745 26.9512 3.12891C26.709 3.28776 26.5215 3.49609 26.3887 3.75391C26.2585 4.00911 26.1934 4.28646 26.1934 4.58594V5.26953C26.1934 5.67057 26.2637 6.01172 26.4043 6.29297C26.5475 6.57422 26.7467 6.78906 27.002 6.9375C27.2572 7.08333 27.5553 7.15625 27.8965 7.15625C28.1178 7.15625 28.3197 7.125 28.502 7.0625C28.6842 6.9974 28.8418 6.90104 28.9746 6.77344C29.1074 6.64583 29.209 6.48828 29.2793 6.30078L30.3848 6.5C30.2962 6.82552 30.1374 7.11068 29.9082 7.35547C29.6816 7.59766 29.3965 7.78646 29.0527 7.92187C28.7116 8.05469 28.3223 8.12109 27.8848 8.12109Z" fill="#9775FA"/>
</svg>
