<svg width="21" height="22" viewBox="0 0 21 22" fill="none" xmlns="http://www.w3.org/2000/svg">
<path d="M6.19341 5.70939C6.19341 3.32332 8.1277 1.38902 10.5138 1.38902C11.6628 1.38415 12.7664 1.83718 13.5806 2.64794C14.3948 3.45869 14.8525 4.56038 14.8525 5.70939M7.5481 10.2128H7.59387M13.3788 10.2128H13.4246M6.33071 20.611H14.6786C17.7449 20.611 20.0973 19.5034 19.4292 15.0458L18.6511 9.00457C18.2392 6.78031 16.8205 5.92905 15.5756 5.92905H5.39707C4.13391 5.92905 2.79753 6.84439 2.32155 9.00457L1.54352 15.0458C0.976023 19 3.26435 20.611 6.33071 20.611Z" stroke="#8F959E" stroke-width="1.5" stroke-linecap="round" stroke-linejoin="round"/>
</svg>
