<svg width="21" height="20" viewBox="0 0 21 20" fill="none" xmlns="http://www.w3.org/2000/svg">
<path d="M14.2393 5.05301C15.3046 5.39331 16.0615 6.34971 16.1561 7.47499M10.261 18.8538C8.0904 17.5179 6.07111 15.9456 4.23929 14.1652C2.95144 12.8829 1.97101 11.3198 1.3731 9.5954C0.29714 6.25031 1.55393 2.42083 5.07112 1.28752C6.91961 0.692433 8.9384 1.03255 10.4961 2.20148C12.0543 1.03398 14.0725 0.693983 15.9211 1.28752C19.4383 2.42083 20.7041 6.25031 19.6281 9.5954C19.0302 11.3198 18.0498 12.8829 16.7619 14.1652C14.9301 15.9456 12.9108 17.5179 10.7402 18.8538L10.5051 19L10.261 18.8538Z" stroke="#8F959E" stroke-width="1.5" stroke-linecap="round" stroke-linejoin="round"/>
</svg>
